<svg width="43" height="43" viewBox="0 0 43 43" fill="none" xmlns="http://www.w3.org/2000/svg">
<g id="fluent:arrow-eject-20-filled" opacity="0.2">
<path id="Vector" d="M9.8901 18.9222C8.1701 20.2122 8.1701 22.7944 9.8901 24.0844L22.7944 33.7508C24.9208 35.3418 27.9544 33.826 27.9544 31.1708L27.9544 11.8315C27.9544 9.17415 24.9186 7.6584 22.7944 9.25155L9.8901 18.9222ZM32.2501 34.4001C32.2501 34.6852 32.3634 34.9586 32.565 35.1602C32.7666 35.3618 33.04 35.4751 33.3251 35.4751C33.6102 35.4751 33.8836 35.3618 34.0852 35.1602C34.2868 34.9586 34.4001 34.6852 34.4001 34.4001L34.4001 8.60009C34.4001 8.31499 34.2868 8.04156 34.0852 7.83996C33.8836 7.63835 33.6102 7.5251 33.3251 7.5251C33.04 7.5251 32.7666 7.63835 32.565 7.83996C32.3634 8.04156 32.2501 8.31499 32.2501 8.60009L32.2501 34.4001Z" fill="black"/>
</g>
</svg>
