<svg width="43" height="43" viewBox="0 0 43 43" fill="none" xmlns="http://www.w3.org/2000/svg">
<g id="fluent:arrow-eject-20-filled">
<path id="Vector" d="M33.1099 18.9222C34.8299 20.2122 34.8299 22.7944 33.1099 24.0844L20.2056 33.7508C18.0792 35.3418 15.0456 33.826 15.0456 31.1708L15.0456 11.8315C15.0456 9.17415 18.0814 7.6584 20.2056 9.25155L33.1099 18.9222ZM10.7499 34.4001C10.7499 34.6852 10.6366 34.9586 10.435 35.1602C10.2334 35.3618 9.96001 35.4751 9.6749 35.4751C9.38979 35.4751 9.11636 35.3618 8.91476 35.1602C8.71316 34.9586 8.5999 34.6852 8.5999 34.4001L8.5999 8.60009C8.5999 8.31499 8.71316 8.04156 8.91476 7.83996C9.11636 7.63835 9.38979 7.5251 9.6749 7.5251C9.96001 7.5251 10.2334 7.63835 10.435 7.83996C10.6366 8.04156 10.7499 8.31499 10.7499 8.60009L10.7499 34.4001Z" fill="black"/>
</g>
</svg>
